<?xml version="1.0" standalone="no"?>
<!DOCTYPE svg PUBLIC "-//W3C//DTD SVG 20010904//EN"
 "http://www.w3.org/TR/2001/REC-SVG-20010904/DTD/svg10.dtd">
<svg version="1.0" xmlns="http://www.w3.org/2000/svg"
 width="133.000000pt" height="133.000000pt" viewBox="0 0 133.000000 133.000000"
 preserveAspectRatio="xMidYMid meet">
<metadata>
Created by potrace 1.14, written by Peter Selinger 2001-2017
</metadata>
<g transform="translate(0.000000,133.000000) scale(0.100000,-0.100000)"
fill="#000000" stroke="none">
<path d="M0 665 l0 -665 665 0 665 0 0 665 0 665 -665 0 -665 0 0 -665z m199
458 c17 -49 36 -94 40 -102 6 -9 21 17 47 88 38 99 40 101 72 101 l32 0 0
-155 c0 -148 -1 -155 -20 -155 -19 0 -20 7 -20 133 0 147 -3 148 -51 15 -26
-73 -35 -88 -53 -88 -18 0 -28 17 -61 103 l-40 102 -3 -132 c-2 -125 -4 -133
-22 -133 -19 0 -20 7 -20 155 l0 155 34 0 c33 0 34 -1 65 -87z m880 0 c17 -49
36 -94 40 -102 6 -9 21 17 47 88 38 99 40 101 72 101 l32 0 0 -155 c0 -148 -1
-155 -20 -155 -19 0 -20 7 -20 133 0 147 -3 148 -51 15 -26 -73 -35 -88 -53
-88 -18 0 -28 17 -61 103 l-40 102 -3 -132 c-2 -125 -4 -133 -22 -133 -19 0
-20 7 -20 155 l0 155 34 0 c33 0 34 -1 65 -87z m-171 65 c7 -9 -8 -60 -54
-178 -35 -91 -64 -168 -64 -171 0 -4 14 -12 32 -20 17 -7 57 -38 88 -68 241
-238 111 -646 -224 -704 -176 -30 -359 65 -441 228 -28 56 -30 67 -30 175 0
108 2 119 31 180 40 83 75 124 146 171 98 63 195 79 342 57 17 -3 28 18 73
132 29 74 56 143 59 153 5 16 -5 17 -118 17 -141 0 -165 -8 -191 -63 -16 -31
-17 -43 -7 -71 12 -37 42 -62 81 -68 13 -1 25 -11 27 -20 8 -43 -98 -4 -129
46 -34 56 -21 134 31 181 19 17 41 21 154 26 72 3 143 6 157 7 15 1 31 -4 37
-10z"/>
<path d="M560 818 c-117 -17 -224 -100 -278 -216 -23 -49 -27 -70 -27 -147 0
-77 4 -98 27 -147 35 -76 95 -138 170 -179 60 -33 68 -34 168 -34 100 0 108 1
168 34 75 41 135 103 170 179 23 49 27 70 27 147 0 78 -4 98 -28 150 -40 86
-163 204 -186 179 -4 -5 -36 -83 -71 -174 -34 -91 -66 -169 -71 -175 -6 -5
-13 -5 -20 2 -8 8 7 59 57 187 37 97 64 179 60 183 -12 12 -110 19 -166 11z"/>
</g>
</svg>
